<?xml version="1.0" standalone="no"?>
<!DOCTYPE svg PUBLIC "-//W3C//DTD SVG 20010904//EN"
 "http://www.w3.org/TR/2001/REC-SVG-20010904/DTD/svg10.dtd">
<svg version="1.0" xmlns="http://www.w3.org/2000/svg"
 width="814.000000pt" height="814.000000pt" viewBox="0 0 814.000000 814.000000"
 preserveAspectRatio="xMidYMid meet">
<metadata>
Created by potrace 1.14, written by Peter Selinger 2001-2017
</metadata>
<g transform="translate(0.000000,814.000000) scale(0.100000,-0.100000)"
fill="#000000" stroke="none">
<path d="M2250 8131 c0 -5 -20 -8 -45 -7 -25 1 -46 -2 -48 -7 -1 -4 -26 -8
-55 -9 -28 0 -52 -4 -52 -9 0 -5 -14 -7 -31 -5 -16 2 -35 -2 -42 -8 -7 -7 -27
-11 -45 -10 -17 1 -32 -2 -32 -8 0 -5 -4 -6 -10 -3 -5 3 -18 2 -28 -4 -10 -5
-33 -12 -52 -14 -19 -3 -36 -6 -37 -7 -2 -2 -7 -4 -13 -5 -5 -1 -13 -4 -17 -5
-5 -1 -11 -2 -15 -1 -5 0 -8 -4 -8 -11 0 -6 -3 -9 -6 -5 -4 3 -21 0 -39 -8
-19 -7 -36 -11 -39 -7 -3 3 -6 0 -6 -7 0 -6 -6 -11 -12 -10 -7 1 -33 -7 -58
-19 -67 -30 -120 -51 -124 -49 -2 1 -14 -7 -26 -18 -12 -11 -25 -19 -29 -18
-13 3 -91 -38 -91 -49 0 -6 -3 -8 -6 -5 -4 3 -16 1 -28 -5 -11 -7 -24 -11 -28
-10 -5 1 -8 -3 -8 -9 0 -5 -4 -7 -10 -4 -5 3 -10 2 -10 -4 0 -6 -16 -17 -35
-26 -19 -9 -46 -27 -60 -40 -14 -13 -25 -21 -25 -18 0 4 -11 -4 -25 -17 -14
-13 -25 -19 -25 -15 0 5 -7 -1 -16 -13 -8 -12 -21 -22 -27 -22 -7 0 -19 -9
-27 -19 -7 -11 -17 -18 -22 -15 -4 3 -8 0 -8 -5 0 -6 -18 -23 -40 -37 -22 -15
-37 -30 -34 -35 3 -5 -1 -9 -8 -9 -17 0 -68 -47 -68 -63 0 -7 -4 -6 -10 3 -6
9 -10 10 -10 3 0 -7 -27 -39 -59 -72 -33 -34 -57 -61 -54 -61 3 0 -5 -11 -18
-24 -34 -33 -69 -76 -62 -76 3 0 -5 -11 -18 -24 -47 -46 -77 -85 -71 -90 3 -3
0 -6 -6 -6 -7 0 -12 -5 -12 -11 0 -18 -37 -59 -45 -51 -5 4 -5 2 -2 -4 4 -7 0
-17 -8 -24 -8 -7 -12 -16 -9 -21 3 -5 0 -9 -5 -9 -6 0 -11 -6 -11 -13 0 -7 -9
-19 -19 -27 -11 -7 -18 -17 -16 -21 3 -3 -5 -18 -16 -33 -11 -14 -17 -26 -13
-26 4 0 -1 -9 -11 -20 -10 -11 -14 -20 -10 -20 4 0 1 -8 -7 -17 -17 -20 -32
-54 -30 -65 1 -5 -3 -8 -9 -8 -5 0 -7 -4 -4 -10 3 -5 1 -10 -5 -10 -6 0 -9 -4
-5 -9 3 -5 0 -13 -6 -16 -5 -4 -8 -14 -5 -22 3 -8 1 -11 -4 -8 -6 3 -11 1 -11
-4 -3 -20 -5 -26 -17 -48 -7 -13 -9 -23 -5 -23 4 0 3 -4 -3 -8 -9 -6 -52 -116
-58 -147 -1 -5 -5 -16 -9 -22 -5 -7 -5 -17 -2 -23 3 -5 1 -10 -5 -10 -6 0 -9
-4 -5 -9 3 -5 0 -13 -6 -16 -5 -4 -8 -13 -5 -21 3 -8 2 -14 -2 -14 -8 0 -12
-22 -15 -67 0 -13 -5 -23 -9 -23 -5 0 -6 -11 -4 -25 3 -14 0 -25 -5 -25 -5 0
-9 -5 -9 -11 0 -5 6 -7 13 -3 7 4 6 -1 -3 -12 -9 -10 -15 -35 -15 -56 0 -20
-3 -34 -6 -32 -3 2 -7 -17 -8 -42 0 -25 -5 -53 -10 -62 -4 -10 -8 -34 -7 -54
1 -20 -2 -34 -6 -32 -4 3 -8 -807 -8 -1800 0 -993 3 -1806 8 -1806 4 0 7 -26
7 -57 -1 -32 3 -61 7 -64 4 -3 9 -25 9 -50 1 -24 4 -48 7 -54 3 -5 7 -23 9
-39 2 -17 8 -33 14 -37 8 -5 8 -9 0 -14 -7 -4 -8 -12 -4 -18 5 -7 10 -25 12
-42 2 -16 7 -35 12 -42 7 -7 6 -14 -1 -18 -7 -4 -6 -13 2 -28 7 -12 13 -29 14
-37 1 -8 8 -33 17 -55 13 -35 30 -95 28 -102 0 -2 8 -19 19 -39 11 -19 18 -39
15 -45 -4 -5 -1 -9 4 -9 6 0 11 -8 11 -18 0 -10 5 -23 11 -29 6 -6 11 -17 13
-24 5 -31 18 -59 27 -59 5 0 9 -8 9 -19 0 -10 10 -31 22 -47 13 -15 17 -24 10
-20 -11 7 -11 4 0 -13 7 -12 16 -21 21 -21 4 0 5 -4 2 -10 -3 -5 -1 -10 5 -10
6 0 9 -4 5 -9 -3 -5 1 -16 9 -24 8 -8 12 -17 9 -21 -4 -3 -1 -6 6 -6 7 0 9 -5
6 -10 -3 -6 -3 -10 2 -10 4 0 21 -23 36 -50 16 -28 33 -50 38 -50 6 0 8 -4 5
-9 -3 -4 3 -16 14 -26 11 -10 20 -22 20 -27 0 -12 46 -73 85 -114 16 -18 46
-51 65 -75 65 -80 221 -229 232 -223 6 4 8 2 5 -3 -4 -6 2 -18 13 -28 11 -10
20 -14 20 -9 0 5 7 -2 16 -14 8 -12 20 -20 25 -17 5 4 9 -2 9 -11 0 -10 3 -14
7 -11 3 4 23 -10 44 -31 20 -20 43 -38 50 -40 7 -2 20 -11 28 -20 9 -9 22 -18
29 -20 7 -1 23 -11 35 -22 11 -11 27 -20 34 -20 7 0 13 -4 13 -10 0 -5 9 -10
20 -10 11 0 20 -4 20 -9 0 -10 70 -46 83 -43 4 1 7 -2 7 -6 0 -5 16 -14 35
-22 19 -8 35 -18 35 -22 0 -5 4 -7 9 -3 5 3 17 -2 25 -11 9 -8 16 -13 16 -10
0 4 18 -3 40 -14 22 -11 40 -17 40 -13 0 5 5 0 11 -10 6 -9 15 -15 20 -11 5 3
16 0 24 -6 8 -7 15 -10 15 -6 0 4 10 0 23 -9 13 -8 27 -12 30 -8 4 3 7 1 7 -6
0 -7 6 -11 14 -8 7 3 18 1 22 -3 5 -5 18 -11 29 -13 11 -1 25 -5 30 -9 13 -7
78 -22 88 -20 4 1 7 -2 7 -6 0 -7 16 -11 58 -14 6 -1 12 -4 12 -8 0 -3 17 -6
38 -5 20 0 43 -4 50 -9 7 -5 34 -11 60 -14 73 -8 4045 -13 4062 -5 8 3 35 7
60 8 25 1 57 7 73 13 15 7 27 9 27 6 0 -4 7 0 17 7 9 8 18 13 20 12 8 -7 64
-2 59 5 -2 4 11 7 29 7 22 -1 36 4 40 13 3 8 8 12 12 9 3 -3 18 0 34 8 15 8
37 15 49 15 11 0 20 5 20 12 0 6 3 9 6 5 4 -3 21 0 39 8 19 7 36 11 39 7 3 -3
6 0 6 6 0 7 3 11 8 10 4 -1 17 3 28 10 12 6 24 8 28 5 3 -3 6 -1 6 5 0 7 6 12
13 12 19 0 67 24 67 33 0 5 5 5 10 2 6 -3 17 1 26 9 8 9 21 16 28 16 8 0 19 7
26 15 7 8 16 12 21 9 5 -3 9 0 9 6 0 6 4 9 8 6 5 -3 18 3 29 14 12 10 24 16
27 13 3 -4 6 -2 6 4 0 9 12 15 47 23 2 0 15 12 29 25 15 14 33 25 41 25 7 0
16 7 19 15 4 8 10 13 14 10 4 -2 20 7 34 20 15 14 34 25 42 25 9 0 18 9 21 20
3 11 9 18 13 15 4 -3 10 2 14 10 3 8 13 15 21 15 9 0 13 4 10 10 -3 5 -3 10 2
10 4 0 40 30 78 65 39 36 74 65 78 65 5 0 5 5 2 10 -3 6 1 10 9 10 9 0 16 5
16 11 0 5 5 7 12 3 6 -4 8 -3 5 3 -4 6 18 36 48 68 30 32 55 62 55 67 0 5 4 7
9 3 5 -3 12 4 16 15 3 11 15 25 26 30 10 6 19 15 19 20 0 6 14 24 30 42 17 17
30 36 30 43 0 7 12 25 28 40 15 16 20 25 12 21 -9 -4 -8 -2 2 7 10 8 18 19 18
26 0 6 5 11 10 11 6 0 10 7 10 15 0 8 5 15 10 15 6 0 10 5 10 10 0 6 11 28 24
49 14 21 22 42 19 45 -4 3 -1 6 5 6 7 0 12 5 12 10 0 6 8 22 17 37 10 14 18
33 20 42 1 8 8 20 15 26 7 5 15 19 16 30 2 11 9 26 15 34 6 7 12 19 14 27 2 8
4 21 6 30 2 8 8 19 13 22 5 4 9 12 10 17 1 26 17 65 27 65 6 0 8 3 5 6 -4 3 0
21 8 40 8 19 11 34 7 34 -5 0 -2 4 4 8 7 5 14 20 15 35 1 15 6 27 11 27 4 0 7
6 6 13 -1 6 0 19 4 27 3 8 8 29 11 45 4 17 9 41 12 55 4 14 7 31 7 38 0 6 3
12 6 12 3 0 8 21 10 48 7 71 6 4142 -1 4182 -3 19 -8 42 -11 50 -10 28 -18 65
-23 110 -3 25 -10 50 -15 56 -5 6 -6 14 -2 17 3 4 1 7 -6 7 -7 0 -10 4 -7 8 3
5 -1 21 -9 36 -8 15 -14 30 -13 34 1 4 -4 18 -12 32 -7 14 -13 27 -13 30 1 10
-9 35 -23 63 -8 15 -12 32 -9 37 3 6 -1 13 -10 16 -8 4 -14 14 -13 23 2 9 -2
15 -8 14 -7 -1 -10 5 -7 15 2 9 -5 27 -17 40 -11 12 -18 22 -15 22 8 0 -24 61
-44 84 -13 16 -13 18 -1 12 8 -4 6 0 -4 8 -11 9 -16 16 -11 16 4 0 0 9 -10 20
-10 11 -15 20 -11 20 4 0 1 7 -6 15 -29 31 -39 45 -34 45 6 0 -73 123 -94 148
-6 6 -9 12 -6 12 3 0 -10 16 -29 35 -19 19 -35 41 -35 50 0 9 -4 14 -9 11 -4
-3 -13 6 -19 19 -7 14 -16 25 -22 25 -5 0 -10 5 -10 11 0 14 -205 219 -220
219 -6 0 -8 5 -5 10 3 6 2 10 -4 10 -5 0 -25 15 -43 33 -19 17 -47 41 -63 52
-16 11 -40 31 -53 45 -14 14 -22 18 -17 10 5 -8 -4 -3 -20 13 -15 15 -34 27
-41 27 -8 0 -14 5 -14 10 0 6 -7 10 -15 10 -8 0 -15 5 -15 11 0 5 -4 7 -10 4
-5 -3 -10 -2 -10 4 0 6 -11 13 -25 17 -14 3 -25 9 -25 14 0 4 -18 15 -40 25
-22 10 -40 22 -40 27 0 5 -4 7 -9 3 -5 -3 -17 3 -27 12 -10 10 -20 18 -23 17
-14 -2 -41 9 -41 17 0 5 -8 9 -19 9 -10 0 -24 7 -31 15 -7 9 -15 13 -18 11 -2
-3 -18 2 -34 10 -17 9 -40 17 -51 20 -12 2 -23 8 -25 14 -2 5 -11 10 -21 10
-9 0 -22 5 -29 12 -7 7 -12 8 -12 4 0 -5 -7 -3 -15 4 -8 7 -22 10 -30 6 -9 -3
-13 -2 -10 4 3 6 -1 11 -9 11 -29 3 -34 4 -42 12 -4 4 -18 7 -31 7 -12 0 -23
4 -23 9 0 5 -11 8 -25 6 -14 -1 -28 2 -31 7 -3 4 -10 6 -15 3 -5 -4 -9 -2 -9
2 0 8 -16 12 -70 16 -14 1 -27 5 -30 9 -5 6 -37 12 -144 24 -28 3 -57 9 -65
13 -9 5 -33 8 -54 7 -21 -1 -41 2 -43 6 -7 11 -3674 10 -3674 -1z m2936 -2114
c4 -4 20 -7 36 -7 15 0 28 -4 28 -9 0 -4 16 -7 34 -6 19 1 33 -2 30 -7 -5 -7
10 -12 29 -9 4 1 36 -6 70 -15 34 -9 70 -17 80 -16 9 0 17 -2 17 -6 0 -4 12
-9 27 -10 15 -1 30 -8 35 -15 4 -6 8 -8 8 -3 0 5 9 1 20 -9 11 -10 20 -15 20
-11 0 4 14 -6 30 -22 17 -17 30 -38 30 -46 0 -9 4 -16 9 -16 5 0 7 -9 4 -20
-3 -11 -1 -20 4 -20 11 0 12 -224 1 -235 -4 -4 -3 -18 2 -31 7 -17 6 -24 -3
-25 -9 0 -9 -2 1 -6 6 -2 9 -10 5 -16 -13 -20 -12 -770 1 -786 7 -9 7 -12 0
-9 -13 8 -13 -730 0 -751 6 -9 5 -12 -1 -8 -7 5 -10 -17 -10 -63 1 -41 6 -70
12 -70 5 0 3 -5 -5 -10 -13 -9 -13 -11 0 -20 8 -5 10 -10 4 -10 -14 0 -14
-210 1 -210 7 0 7 -3 0 -8 -15 -10 -15 -413 0 -428 7 -8 52 -12 119 -12 59 0
110 -2 113 -6 3 -3 11 -2 17 2 15 10 61 12 376 15 152 2 282 7 290 12 8 5 11
4 7 -1 -3 -5 3 -10 13 -10 10 0 16 4 13 9 -3 5 4 6 17 2 15 -5 25 -2 31 6 7
12 9 12 9 0 0 -11 3 -11 17 0 9 8 14 9 10 3 -8 -13 50 -13 71 0 7 4 12 3 12
-2 0 -5 15 -8 33 -7 48 2 107 -13 126 -33 9 -10 12 -12 7 -5 -15 22 -1 14 25
-14 13 -14 18 -23 10 -18 -9 5 -12 4 -7 -3 4 -7 14 -12 22 -12 8 0 14 -9 14
-20 0 -11 4 -20 8 -20 5 0 9 -7 10 -15 1 -8 3 -22 4 -30 1 -8 5 -15 10 -15 4
0 8 -13 8 -29 0 -17 5 -33 11 -36 5 -4 9 -17 8 -28 -3 -40 1 -68 9 -64 4 3 8
-7 9 -21 1 -15 4 -40 7 -57 7 -39 10 -126 5 -144 -6 -22 -41 -61 -50 -55 -4 2
-10 0 -14 -6 -4 -6 -11 -8 -16 -5 -5 4 -9 2 -9 -3 0 -10 -30 -9 -48 2 -7 4
-12 2 -12 -6 0 -8 -3 -9 -8 -3 -4 6 -23 11 -42 12 -176 10 -254 18 -271 29 -8
4 -10 3 -5 -4 9 -16 -7 -15 -22 0 -7 7 -12 8 -12 3 0 -6 -27 -10 -60 -10 -33
0 -60 4 -60 10 0 7 -3 7 -8 0 -4 -5 -20 -10 -37 -10 -16 0 -33 5 -37 10 -5 6
-8 4 -8 -5 0 -13 -1 -13 -10 0 -6 10 -10 11 -10 3 0 -9 -7 -10 -25 -3 -18 7
-25 6 -25 -3 0 -8 -4 -7 -10 3 -5 8 -10 10 -10 5 0 -14 -53 -13 -62 0 -5 6 -8
5 -8 -4 0 -11 -3 -11 -15 -1 -8 7 -15 8 -15 3 0 -5 -9 -9 -20 -9 -11 0 -20 4
-20 9 0 4 -8 4 -17 -2 -10 -5 -26 -5 -40 0 -14 5 -23 5 -23 -1 0 -5 -12 -5
-30 0 -21 6 -30 5 -30 -3 0 -7 -4 -6 -10 3 -5 8 -10 10 -10 4 0 -14 -32 -13
-42 1 -5 6 -8 5 -8 -3 0 -7 -5 -10 -11 -7 -17 11 -59 13 -59 3 0 -5 -9 -4 -20
2 -15 8 -20 8 -21 -2 0 -10 -2 -10 -6 1 -5 11 -7 11 -15 0 -7 -11 -11 -11 -15
-1 -2 6 -9 12 -14 12 -6 0 -8 -3 -6 -7 8 -12 -97 -9 -105 2 -5 6 -8 4 -8 -5 0
-13 -1 -13 -10 0 -7 11 -10 11 -10 2 0 -10 -5 -10 -20 -2 -11 6 -20 7 -20 2 0
-12 -43 -9 -52 3 -5 7 -8 7 -8 0 0 -11 -146 -12 -157 -2 -3 4 -10 4 -16 0 -17
-11 -67 -11 -61 -1 4 6 -4 4 -17 -3 -13 -7 -24 -12 -24 -12 0 0 -11 5 -24 12
-15 9 -21 9 -16 2 7 -12 -47 -7 -68 6 -6 3 -7 1 -3 -5 4 -7 1 -12 -9 -12 -9 0
-13 4 -10 10 3 6 -1 7 -9 4 -9 -3 -13 -11 -9 -18 5 -8 3 -8 -8 0 -8 6 -21 11
-29 12 -54 1 -110 19 -110 34 0 5 -4 6 -10 3 -5 -3 -10 1 -10 9 0 9 -3 16 -8
16 -6 0 -8 96 -2 110 1 3 2 8 1 13 0 4 2 7 7 7 4 0 7 15 6 33 0 17 3 37 7 42
8 12 20 109 22 182 1 29 4 53 8 53 3 0 5 17 5 38 0 21 4 43 8 50 4 7 4 12 -1
12 -4 0 -8 34 -8 75 0 41 3 75 7 75 4 0 3 12 0 28 -10 36 -8 94 3 111 5 9 4
12 -2 8 -6 -4 -9 24 -9 76 1 45 -3 88 -8 95 -5 6 -5 12 0 12 5 0 10 11 10 25
1 14 -2 23 -6 20 -5 -3 -5 8 0 24 5 19 4 33 -3 40 -8 8 -8 11 1 11 10 0 10 5
2 20 -6 11 -7 20 -1 20 12 0 9 33 -4 42 -6 5 -5 8 4 8 10 0 11 3 2 14 -9 11
-9 15 0 18 9 3 9 9 0 26 -6 12 -8 22 -4 22 4 0 8 22 8 49 0 27 -3 47 -7 44 -5
-2 -8 1 -8 6 0 6 6 11 13 11 8 0 7 4 -3 10 -13 9 -13 10 0 10 13 0 13 1 0 10
-9 6 -10 10 -3 10 8 0 9 9 3 30 -5 17 -5 30 0 30 5 0 5 13 0 30 -6 21 -5 30 3
30 7 0 6 4 -3 10 -13 9 -13 10 0 10 13 0 13 1 0 10 -9 6 -10 10 -3 10 8 0 9 9
3 30 -5 19 -5 30 1 30 6 0 5 8 -1 20 -7 14 -7 20 0 20 5 0 10 5 10 11 0 5 -4
8 -8 5 -5 -3 -9 1 -9 9 0 8 4 15 8 15 4 0 4 14 -1 30 -5 17 -5 30 0 30 11 0 7
33 -5 42 -6 5 -5 8 4 8 11 0 11 3 1 15 -10 12 -10 15 1 15 11 0 11 2 -1 10
-13 9 -13 10 0 10 13 0 13 1 0 10 -13 8 -13 10 -1 10 12 0 12 3 3 12 -15 15
-16 31 0 22 7 -5 8 -3 3 6 -5 8 -9 156 -10 330 -1 174 -5 321 -9 328 -4 7 -2
12 6 12 8 0 9 3 3 8 -13 9 -15 22 -16 95 -1 34 -5 67 -10 74 -7 7 -6 14 1 18
6 3 7 12 3 18 -4 7 -9 32 -10 57 -2 25 -3 55 -4 67 -1 13 -4 21 -8 19 -3 -2
-7 21 -8 51 0 30 -6 60 -11 65 -6 6 -7 21 -2 39 5 16 5 31 0 34 -5 3 -6 13 -3
22 4 9 2 14 -3 10 -12 -7 -9 97 4 140 12 36 49 93 60 92 18 -3 33 2 28 9 -6
10 130 9 140 -1z m-2275 -38 c7 -12 9 -12 9 0 0 9 4 10 13 5 6 -5 36 -9 64 -9
29 0 53 -3 53 -7 0 -3 8 -5 18 -4 9 2 31 -1 47 -6 17 -6 40 -11 52 -12 12 -1
25 -5 29 -9 4 -4 18 -7 31 -7 12 0 23 -5 23 -11 0 -6 7 -8 16 -5 8 3 26 -1 40
-10 13 -9 24 -13 24 -10 0 4 6 4 13 -1 6 -4 14 -8 17 -9 13 -2 47 -17 72 -30
14 -8 33 -14 42 -14 9 0 16 -4 16 -9 0 -5 10 -13 23 -17 12 -4 25 -11 28 -16
3 -5 15 -10 27 -11 12 0 19 -3 17 -5 -2 -3 22 -21 55 -41 65 -40 112 -75 146
-108 13 -13 25 -23 28 -23 7 0 54 -48 51 -52 -2 -2 12 -14 31 -28 18 -14 34
-28 34 -32 0 -4 12 -20 28 -36 46 -49 72 -82 64 -82 -4 0 1 -5 11 -11 9 -5 24
-24 33 -42 9 -18 20 -34 23 -37 12 -10 61 -90 61 -100 0 -5 4 -10 8 -10 8 0
38 -74 31 -77 -2 -1 5 -9 16 -17 11 -9 16 -16 11 -16 -5 0 -2 -8 5 -17 12 -14
12 -16 -1 -9 -9 4 -8 2 2 -7 10 -8 15 -17 11 -20 -3 -4 -1 -7 5 -7 7 0 12 -9
12 -21 0 -12 4 -17 11 -13 8 5 8 1 0 -14 -8 -15 -8 -21 0 -24 6 -2 12 -15 12
-30 1 -14 5 -24 10 -21 6 3 10 -12 5 -19 -1 -2 5 -14 12 -28 8 -14 15 -29 16
-35 0 -5 2 -12 4 -15 1 -3 3 -16 4 -30 1 -14 5 -30 9 -37 4 -7 8 -28 9 -48 1
-19 4 -35 8 -35 4 0 6 -10 5 -22 -1 -13 3 -29 9 -37 9 -12 8 -13 -4 -6 -12 7
-12 5 1 -11 10 -11 15 -30 12 -47 -3 -22 -1 -27 9 -21 10 6 11 5 1 -8 -7 -8
-10 -18 -6 -22 4 -4 8 -33 9 -64 3 -95 7 -147 12 -156 9 -17 8 -111 -1 -123
-6 -9 -5 -13 2 -13 7 0 9 -5 5 -12 -8 -13 -10 -29 -15 -130 -2 -31 -6 -55 -11
-52 -4 2 -6 -17 -6 -44 1 -26 -2 -54 -7 -62 -5 -8 -10 -26 -11 -40 -1 -14 -2
-25 -4 -25 -1 0 -4 -16 -7 -35 -2 -19 -8 -37 -12 -40 -4 -3 -6 -12 -6 -20 1
-8 -5 -29 -12 -46 -7 -17 -9 -34 -6 -38 4 -3 1 -6 -6 -6 -7 0 -11 -6 -8 -14 3
-8 1 -16 -4 -18 -5 -2 -11 -13 -12 -26 0 -12 -5 -22 -9 -22 -4 0 -8 -9 -8 -21
0 -11 -4 -18 -9 -14 -6 3 -8 -4 -6 -15 2 -11 -1 -20 -7 -20 -5 0 -8 -7 -4 -15
3 -8 2 -15 -3 -15 -5 0 -14 -15 -22 -32 -7 -18 -19 -37 -26 -41 -7 -5 -11 -12
-8 -18 4 -5 1 -9 -5 -9 -6 0 -8 -4 -5 -10 3 -5 1 -10 -4 -10 -6 0 -11 -6 -11
-13 0 -8 -9 -22 -20 -32 -11 -10 -18 -20 -16 -22 2 -3 -4 -13 -15 -24 -11 -11
-17 -24 -14 -29 4 -6 2 -10 -3 -10 -5 0 -21 -18 -36 -40 -16 -24 -31 -38 -38
-34 -6 4 -8 3 -4 -4 7 -12 -131 -162 -149 -162 -16 0 -36 -46 -29 -65 3 -8 14
-17 25 -20 10 -4 19 -10 19 -15 0 -5 9 -7 20 -5 11 2 19 -1 17 -8 -1 -6 3 -11
10 -12 7 0 19 -9 28 -20 9 -11 13 -13 9 -5 -6 13 -5 13 12 0 24 -20 90 -50
109 -50 8 0 15 -4 15 -10 0 -5 13 -10 28 -10 16 0 32 -3 36 -7 4 -4 24 -8 44
-8 20 0 44 -5 52 -10 8 -5 24 -9 35 -10 26 0 27 -31 2 -67 -10 -16 -15 -28
-10 -28 4 0 0 -5 -9 -11 -10 -5 -18 -17 -18 -24 0 -8 -3 -15 -8 -15 -4 0 -16
-20 -27 -44 -11 -24 -24 -42 -29 -39 -5 3 -7 0 -4 -7 4 -13 -7 -28 -74 -103
-16 -16 -28 -34 -28 -39 0 -5 -4 -7 -9 -3 -5 3 -12 -4 -16 -15 -4 -11 -10 -18
-15 -15 -5 3 -16 -5 -24 -17 -9 -12 -16 -18 -16 -13 -1 6 -6 0 -13 -12 -12
-21 -15 -23 -38 -23 -5 0 -7 -5 -4 -10 4 -6 3 -9 -2 -8 -17 4 -53 -14 -47 -24
4 -6 3 -8 -3 -5 -5 3 -28 -1 -52 -9 -23 -8 -47 -12 -52 -9 -5 4 -9 2 -9 -3 0
-8 -38 -8 -137 1 -11 1 -19 5 -17 9 2 4 -5 9 -16 13 -11 3 -20 11 -20 17 0 6
-3 9 -6 6 -8 -8 -153 135 -147 145 2 4 -3 7 -11 7 -14 0 -20 12 -17 32 0 5 -6
8 -14 8 -9 0 -18 7 -22 16 -3 10 -19 29 -35 44 -15 15 -28 32 -28 39 0 6 -4
11 -10 11 -5 0 -10 7 -10 15 0 8 -5 15 -11 15 -5 0 -7 5 -4 10 3 5 2 10 -4 10
-5 0 -12 9 -16 19 -3 12 -15 20 -28 19 -30 0 -120 -19 -132 -28 -5 -4 -25 -6
-42 -5 -18 0 -33 -3 -33 -8 0 -4 -4 -5 -10 -2 -5 3 -10 0 -11 -7 0 -9 -2 -9
-5 -1 -4 8 -14 9 -35 3 -20 -6 -29 -5 -29 3 0 8 -3 7 -9 -2 -6 -10 -36 -14
-108 -16 -55 -1 -105 -5 -111 -9 -6 -3 -14 -2 -17 4 -5 8 -12 7 -23 -2 -13
-11 -14 -11 -7 2 8 13 7 13 -8 1 -9 -7 -17 -10 -17 -5 0 5 -28 9 -62 10 -79 1
-188 14 -208 24 -8 4 -28 6 -43 5 -15 -1 -30 3 -34 8 -4 6 -1 7 7 2 8 -5 11
-4 7 3 -4 5 -16 8 -27 5 -11 -3 -20 -1 -20 4 0 5 -9 9 -20 10 -11 1 -18 -2
-15 -7 3 -4 -6 -3 -20 3 -14 7 -25 15 -25 19 0 4 -9 5 -20 3 -11 -2 -20 1 -20
7 0 5 -6 8 -14 5 -7 -3 -17 -2 -22 3 -5 4 -26 13 -46 20 -21 6 -38 16 -38 21
0 5 -7 9 -17 9 -23 0 -93 32 -93 43 0 4 -4 6 -9 3 -5 -3 -12 1 -15 10 -3 8
-11 12 -17 9 -6 -4 -21 3 -35 16 -13 12 -24 18 -24 13 0 -5 -5 -1 -11 9 -5 9
-16 17 -24 17 -8 0 -21 10 -29 22 -9 12 -16 19 -16 15 0 -4 -10 1 -22 12 -11
11 -26 18 -31 14 -6 -3 -7 -1 -3 5 3 6 -3 13 -14 17 -11 4 -28 17 -36 31 -9
13 -23 24 -30 24 -8 0 -14 6 -14 14 0 8 -9 18 -20 21 -11 4 -18 11 -15 16 4 5
1 9 -5 9 -6 0 -18 7 -26 15 -9 8 -12 15 -8 15 4 0 -5 10 -19 23 -15 12 -27 27
-27 33 0 5 -9 16 -20 24 -11 8 -20 20 -20 27 0 7 -4 13 -10 13 -5 0 -10 7 -10
16 0 8 -4 12 -10 9 -5 -3 -10 1 -10 9 0 9 -4 16 -10 16 -5 0 -10 4 -10 9 0 5
-18 36 -40 69 -22 33 -40 65 -40 71 0 7 -4 10 -9 6 -6 -3 -8 4 -6 15 2 11 0
20 -6 20 -5 0 -9 7 -9 15 0 8 -5 15 -10 15 -6 0 -10 3 -9 8 2 15 -14 52 -22
52 -5 0 -9 9 -9 20 0 11 -5 20 -10 20 -6 0 -9 3 -8 8 1 4 -4 23 -11 42 -8 19
-13 42 -12 52 1 9 -3 19 -9 23 -5 3 -10 17 -10 31 0 13 -4 24 -8 24 -4 0 -9
12 -10 27 -1 15 -5 29 -10 32 -4 3 -8 15 -8 26 -2 29 -11 75 -22 111 -5 16 -9
41 -8 55 1 13 -1 26 -5 29 -4 3 -8 25 -10 50 -1 25 -7 51 -13 59 -9 12 -8 13
3 6 11 -6 12 -5 5 6 -12 19 -14 431 -1 447 6 8 5 12 -4 12 -9 0 -10 3 -3 8 6
4 12 21 12 37 2 30 9 70 12 70 2 0 4 16 5 35 5 60 15 111 25 130 6 11 9 23 8
27 -1 4 3 18 10 31 7 12 10 22 6 22 -3 0 -2 6 4 13 6 7 13 24 16 37 2 14 12
42 20 63 9 20 14 37 10 37 -3 0 2 7 11 16 9 9 14 23 11 30 -3 8 -2 14 3 14 4
0 16 20 27 45 10 25 22 45 26 45 4 0 8 7 8 15 0 8 7 23 15 32 8 10 15 21 15
25 0 4 12 20 25 34 14 15 25 31 25 35 0 10 24 41 62 81 14 15 23 28 20 28 -4
0 2 7 12 15 11 8 17 15 13 15 -4 0 18 25 48 55 31 30 60 55 65 55 6 0 9 3 7 8
-1 4 0 7 3 8 3 0 19 14 36 30 35 33 92 77 107 83 6 2 21 15 34 27 13 13 30 24
38 24 8 0 15 4 15 8 0 5 18 17 40 28 22 10 40 23 40 27 0 5 5 5 10 2 6 -3 10
-1 10 4 0 6 12 11 26 11 14 0 23 4 19 10 -3 6 3 10 15 10 14 0 19 4 14 12 -5
8 -2 9 9 5 9 -3 19 -2 22 3 4 6 15 10 26 10 10 0 19 5 19 11 0 5 5 7 10 4 6
-3 10 -2 10 3 0 5 6 9 13 9 6 1 38 10 71 22 32 11 62 18 67 15 5 -3 9 0 9 5 0
6 11 11 24 11 14 0 27 4 31 9 3 6 15 8 27 6 12 -3 25 0 28 5 4 6 23 11 43 12
20 1 35 4 33 7 -2 3 28 7 67 8 40 2 92 6 117 11 78 13 311 7 321 -9z"/>
<path d="M2600 5383 c0 -6 -11 -10 -25 -8 -14 1 -25 -2 -25 -6 0 -5 -3 -8 -7
-8 -5 1 -11 0 -15 -1 -5 -1 -11 -3 -15 -4 -5 -2 -28 -8 -53 -16 -25 -7 -52
-15 -60 -16 -8 -2 -16 -8 -18 -14 -2 -5 -8 -8 -13 -4 -5 3 -9 0 -9 -6 0 -6 -4
-8 -10 -5 -5 3 -10 1 -10 -5 0 -6 -4 -8 -10 -5 -5 3 -10 1 -10 -4 0 -6 -5 -11
-10 -11 -19 0 -110 -67 -102 -75 4 -5 2 -5 -5 -1 -6 3 -23 -5 -37 -19 -14 -14
-26 -22 -26 -18 0 4 -5 0 -11 -10 -6 -9 -14 -15 -20 -12 -5 4 -9 0 -9 -7 0 -7
-11 -22 -25 -32 -14 -10 -25 -23 -25 -28 0 -5 -12 -20 -26 -33 -15 -14 -24
-25 -20 -25 4 0 -2 -10 -14 -22 -11 -12 -20 -25 -20 -29 0 -5 -10 -18 -22 -30
-13 -12 -16 -19 -8 -15 9 5 9 2 -2 -7 -10 -8 -15 -17 -11 -20 3 -4 2 -7 -4 -7
-6 0 -16 -13 -22 -30 -5 -16 -14 -30 -18 -30 -5 0 -9 -10 -10 -21 -1 -12 -10
-31 -20 -42 -12 -14 -13 -18 -3 -12 13 8 13 7 1 -8 -7 -9 -10 -17 -7 -17 4 0
1 -10 -6 -22 -6 -13 -13 -27 -14 -33 -1 -5 -8 -23 -15 -40 -6 -16 -13 -34 -14
-40 -1 -5 -3 -12 -4 -15 -1 -3 -4 -18 -7 -35 -5 -39 -12 -70 -14 -70 -1 0 -3
-29 -5 -65 -2 -36 -4 -65 -5 -65 -2 0 -4 -57 -5 -127 -2 -91 0 -128 9 -128 6
0 4 -5 -4 -10 -8 -5 -10 -10 -5 -10 6 0 10 -24 10 -55 0 -30 3 -55 7 -55 4 0
7 -8 7 -17 0 -10 2 -36 6 -58 3 -22 7 -48 9 -58 1 -9 7 -22 13 -28 6 -6 9 -18
6 -25 -3 -8 -1 -14 4 -14 5 0 9 -10 10 -22 1 -11 6 -24 10 -27 4 -3 9 -14 11
-23 1 -9 9 -29 17 -44 8 -15 11 -32 8 -37 -3 -6 -1 -7 4 -4 6 4 17 -8 24 -26
7 -17 17 -35 22 -38 4 -3 10 -15 11 -25 2 -10 8 -18 13 -17 5 1 19 -18 32 -43
13 -24 27 -41 32 -38 5 3 9 1 9 -5 0 -6 18 -29 40 -51 22 -22 40 -38 40 -34 0
3 14 -8 32 -24 17 -17 35 -29 40 -26 4 3 8 1 8 -4 0 -11 61 -55 77 -55 7 0 13
-4 13 -9 0 -5 5 -6 10 -3 6 3 13 -1 16 -9 3 -9 10 -14 14 -11 5 3 11 1 15 -5
4 -6 10 -8 15 -5 4 3 10 -2 14 -10 3 -8 12 -12 21 -9 8 4 15 1 15 -7 0 -7 3
-9 6 -6 4 3 16 1 28 -5 11 -7 25 -11 30 -10 4 2 13 -2 20 -7 6 -5 24 -8 38 -7
17 2 25 -1 21 -7 -4 -6 2 -8 15 -5 12 4 22 3 22 0 0 -6 237 -8 277 -3 6 0 10
7 9 14 -3 14 -34 76 -47 91 -21 24 -78 120 -74 124 2 2 -9 16 -23 30 -15 15
-29 32 -31 37 -10 27 -64 104 -98 140 -7 7 -9 15 -6 19 4 3 -1 6 -10 6 -16 0
-22 12 -18 33 1 5 -3 6 -8 3 -5 -3 -16 9 -24 27 -9 17 -12 33 -7 35 5 2 6 10
3 18 -7 18 109 72 152 71 21 -1 29 3 27 13 -3 11 0 12 8 4 7 -7 26 -9 48 -5
43 7 84 3 78 -8 -3 -4 5 -7 17 -6 12 1 32 -5 45 -13 15 -10 22 -11 22 -3 0 7
10 3 22 -9 12 -11 27 -20 34 -20 11 0 55 -51 107 -121 9 -13 31 -43 48 -67 17
-23 36 -39 41 -35 6 3 8 1 4 -5 -3 -6 -1 -17 6 -24 45 -48 61 -70 48 -63 -8 5
-1 -5 15 -21 29 -27 75 -42 75 -24 0 5 9 12 20 15 11 4 18 10 15 15 -3 4 2 11
11 14 8 3 12 10 9 16 -3 5 0 10 7 10 14 0 44 39 40 53 -1 4 5 7 15 7 9 0 14 3
10 6 -3 3 2 14 11 23 30 31 52 61 46 61 -3 0 4 12 15 26 12 15 21 33 21 40 0
8 4 14 10 14 5 0 7 6 4 14 -3 8 0 17 5 21 6 3 9 11 6 16 -4 5 -1 9 5 9 6 0 8
5 5 10 -3 6 -1 10 4 10 6 0 11 7 11 15 0 8 5 15 11 15 5 0 7 5 4 10 -3 6 -3
16 2 23 14 22 30 73 28 95 -1 12 2 19 6 17 6 -4 12 20 23 95 2 14 7 33 11 42
4 9 8 54 10 100 2 46 4 83 5 83 7 0 5 47 -3 52 -5 3 -3 9 4 14 12 7 12 9 0 9
-11 0 -11 3 -1 15 7 8 8 15 4 15 -5 0 -10 38 -11 85 -1 46 -7 94 -13 105 -6
11 -8 25 -5 31 4 5 1 16 -5 24 -9 11 -9 15 -1 15 9 0 9 5 1 21 -6 11 -12 33
-12 50 -1 16 -5 29 -11 29 -5 0 -7 7 -4 15 4 8 2 17 -3 20 -6 4 -10 15 -10 26
0 10 -5 19 -11 19 -5 0 -8 4 -4 9 3 5 0 15 -7 23 -7 7 -13 18 -14 23 -2 19
-28 75 -36 75 -4 0 -8 5 -8 11 0 6 -9 24 -21 40 -11 16 -17 29 -12 29 4 0 0 5
-9 11 -10 5 -18 17 -18 24 0 8 -8 15 -17 15 -9 0 -14 3 -10 6 3 3 0 12 -6 20
-34 40 -117 122 -143 141 -16 12 -53 40 -83 62 -30 22 -58 38 -63 35 -4 -3
-11 1 -14 10 -3 8 -14 13 -25 11 -11 -2 -17 0 -14 6 4 5 -3 9 -14 9 -12 0 -21
5 -21 11 0 6 -7 9 -15 6 -8 -4 -17 -2 -21 4 -3 6 -11 8 -17 6 -6 -2 -22 2 -35
9 -14 7 -33 11 -43 9 -11 -2 -17 0 -14 6 4 5 -4 10 -17 10 -13 1 -37 2 -53 3
-17 1 -35 5 -40 8 -17 9 -175 5 -182 -5 -3 -5 -9 -3 -14 4 -6 9 -9 10 -9 2z"/>
<path d="M3660 3511 c0 -6 4 -13 10 -16 6 -3 7 1 4 9 -7 18 -14 21 -14 7z"/>
<path d="M3690 3511 c0 -6 4 -13 10 -16 6 -3 7 1 4 9 -7 18 -14 21 -14 7z"/>
<path d="M3287 3099 c7 -7 15 -10 18 -7 3 3 -2 9 -12 12 -14 6 -15 5 -6 -5z"/>
<path d="M501 7904 c0 -11 3 -14 6 -6 3 7 2 16 -1 19 -3 4 -6 -2 -5 -13z"/>
<path d="M525 7900 c-3 -5 -3 -10 2 -10 4 -1 -3 -7 -16 -14 -20 -11 -21 -14
-7 -19 10 -4 15 -3 12 2 -3 5 1 11 9 15 8 3 15 0 15 -6 0 -6 3 -8 6 -5 4 4 2
13 -4 20 -7 8 -9 17 -5 20 3 4 4 7 0 7 -3 0 -9 -4 -12 -10z"/>
<path d="M590 7746 c0 -2 7 -7 16 -10 8 -3 12 -2 9 4 -6 10 -25 14 -25 6z"/>
</g>
</svg>
